# AST/ASF file generated using VICON BodyLanguage
# -----------------------------------------------
:version 1.10
:name VICON
:units
  mass 1.0
  length 0.45
  angle deg
:documentation
   .ast/.asf automatically generated from VICON data using
   VICON BodyBuilder and BodyLanguage model FoxedUp or BRILLIANT.MOD
:root
   order TX TY TZ RX RY RZ
   axis XYZ
   position 0 0 0  
   orientation 0 0 0 
:bonedata
  begin
     id 1 
     name lhipjoint
     direction 0.610259 -0.730986 0.305356 
     length 2.50941 
     axis 0 0 0  XYZ
  end
  begin
     id 2 
     name lfemur
     direction 0.34202 -0.939693 0  
     length 7.48822  
     axis 0 0 20  XYZ
    dof rx ry rz
    limits (-160.0 20.0)
           (-70.0 70.0)
           (-60.0 70.0)
  end
  begin
     id 3 
     name ltibia
     direction 0.34202 -0.939693 0   
     length 7.60141   
     axis 0 0 20   XYZ
    dof rx
    limits (-10.0 170.0)
  end
  begin
     id 4 
     name lfoot
     direction 0.0673488 -0.185039 0.980421   
     length 2.04049   
     axis -90 7.62852e-016 20   XYZ
    dof rx rz
    limits (-45.0 90.0)
           (-70.0 20.0)
  end
  begin
     id 5 
     name ltoes
     direction 1.5356e-011 -4.21729e-011 1   
     length 1.02897   
     axis -90 7.62852e-016 20   XYZ
    dof rx
    limits (-90.0 20.0)
  end
  begin
     id 6 
     name rhipjoint
     direction -0.57612 -0.754205 0.315056   
     length 2.43216  
     axis 0 0 0  XYZ 
  end
  begin
     id 7 
     name rfemur
     direction -0.34202 -0.939693 0   
     length 7.42799   
     axis 0 0 -20   XYZ
    dof rx ry rz
    limits (-160.0 20.0)
           (-70.0 70.0)
           (-70.0 60.0)
  end
  begin
     id 8 
     name rtibia
     direction -0.34202 -0.939693 0   
     length 7.69484   
     axis 0 0 -20   XYZ
    dof rx
    limits (-10.0 170.0)
 end
 begin
     id 9 
     name rfoot
     direction -0.111837 -0.30727 0.945028   
     length 2.15769  
     axis -90 -7.62852e-016 -20   XYZ
    dof rx rz
    limits (-45.0 90.0)
           (-20.0 70.0)
  end
  begin
     id 10 
     name rtoes
     direction -1.53539e-011 -4.21878e-011 1   
     length 1.07391   
     axis -90 -7.62852e-016 -20   XYZ
    dof rx
    limits (-90.0 20.0)
  end
  begin
     id 11 
     name lowerback
     direction 0.00552624 0.990109 -0.140195   
     length 2.12403   
     axis 0 0 0   XYZ
    dof rx ry rz
    limits (-20.0 45.0)
           (-30.0 30.0)
           (-30.0 30.0)
  end
  begin
     id 12 
     name upperback
     direction 0.00361898 0.999976 -0.00584723   
     length 2.13232   
     axis 0 0 0   XYZ
    dof rx ry rz
    limits (-20.0 45.0)
           (-30.0 30.0)
           (-30.0 30.0)
  end
  begin
     id 13 
     name thorax
     direction -0.000331275 0.998253 0.0590847   
     length 2.17688   
     axis 0 0 0   XYZ
    dof rx ry rz
    limits (-20.0 45.0)
           (-30.0 30.0)
           (-30.0 30.0)
  end
  begin
     id 14 
     name lowerneck
     direction -0.0561561 0.979832 0.19177   
     length 1.64159   
     axis 0 0 0   XYZ
    dof rx ry rz
    limits (-20.0 45.0)
           (-30.0 30.0)
           (-30.0 30.0)
  end
  begin
     id 15 
     name upperneck
     direction 0.0827153 0.979385 -0.184293   
     length 1.68939   
     axis 0 0 0   XYZ
    dof rx ry rz
    limits (-20.0 45.0)
           (-30.0 30.0)
           (-30.0 30.0)
  end
  begin
     id 16
     name head
     direction 0.0278583 0.995936 -0.0856488  
     length 1.70207  
     axis 0 0 0   XYZ
    dof rx ry rz
    limits (-20.0 45.0)
           (-30.0 30.0)
           (-30.0 30.0)
  end
  begin
     id 17 
     name lclavicle
     direction 0.950993 0.301131 -0.0702275  
     length 3.41652  
     axis 0 0 0   XYZ
    dof ry rz
    limits (-20.0 10.0)
           (0.0 20.0)
  end
  begin
     id 18 
     name lhumerus
     direction 1 -4.48981e-011 -3.9662e-029   
     length 5.32955   
     axis 180 -30 -90   XYZ
    dof rx ry rz
    limits (-60.0 90.0)
           (-90.0 90.0)
           (-90.0 90.0)
  end
  begin
     id 19
     name lradius
     direction 1 -4.48925e-011 -9.0549e-027   
     length 3.69232   
     axis 180 -30 -90   XYZ
    dof rx
    limits (-10.0 170.0)
  end
  begin
     id 20
     name lwrist
     direction 1 -4.49007e-011 -1.49005e-026   
     length 1.84616   
     axis 9.0955e-015 90 90   XYZ
    dof ry
    limits (-180.0 0.0)
 end
  begin
     id 21 
     name lhand
     direction 1 -4.49016e-011 -2.98023e-026   
     length 0.536598   
     axis 1.90115e-014 90 90   XYZ
    dof rx rz
    limits (-90.0 90.0)
           (-45.0 45.0)
  end
  begin
     id 22 
     name lfingers
     direction 1 -4.48924e-011 -5.9578e-026   
     length 0.432619   
     axis 3.80223e-014 90 90   XYZ
    dof rx
    limits (0.0 90.0)
  end
  begin
     id 23
     name lthumb
     direction 0.707107 -6.34947e-011 0.707107   
     length 0.621157   
     axis -90 45 -3.84942e-014   XYZ
    dof rx rz
    limits (-45.0 45.0)
           (-45.0 45.0)
  end
  begin
     id 24 
     name rclavicle
     direction -0.955495 0.276497 -0.102848   
     length 3.36357  
     axis 0 0 0   XYZ 
    dof ry rz
    limits (-10.0 20.0)
           (-20.0 0.0)
  end
  begin
     id 25 
     name rhumerus
     direction -1 -4.48961e-011 3.30983e-027  
     length 5.23431   
     axis 180 30 90   XYZ
    dof rx ry rz
    limits (-90.0 60.0)
           (-90.0 90.0)
           (-90.0 90.0)
  end
  begin
     id 26 
     name rradius
     direction -1 -4.48965e-011 -6.63263e-027   
     length 3.55301   
     axis 180 30 90   XYZ
    dof rx
    limits (-10.0 170.0)
  end
  begin
     id 27 
     name rwrist
     direction -1 -4.48942e-011 -1.48958e-026   
     length 1.77651   
     axis 9.0955e-015 -90 -90   XYZ
    dof ry
    limits (-180.0 0.0)
  end
  begin
     id 28
     name rhand
     direction -1 -4.48977e-011 -2.97966e-026   
     length 0.772522   
     axis 1.90115e-014 -90 -90   XYZ
    dof rx rz
    limits (-90.0 90.0)
           (-45.0 45.0)
  end
  begin
     id 29
     name rfingers
     direction -1 -4.49135e-011 -5.96389e-026   
     length 0.622827   
     axis 3.80223e-014 -90 -90   XYZ
    dof rx
    limits (0.0 90.0)
  end
  begin
     id 30
     name rthumb
     direction -0.707107 -6.34969e-011 0.707107   
     length 0.894259   
     axis -90 -45 3.84942e-014   XYZ
    dof rx rz
    limits (-45.0 45.0)
           (-45.0 45.0)
  end
:hierarchy
  begin
    root lhipjoint rhipjoint lowerback
    lhipjoint lfemur
    lfemur ltibia
    ltibia lfoot
    lfoot ltoes
    rhipjoint rfemur
    rfemur rtibia
    rtibia rfoot
    rfoot rtoes
    lowerback upperback
    upperback thorax
    thorax lowerneck lclavicle rclavicle
    lowerneck upperneck
    upperneck head
    lclavicle lhumerus
    lhumerus lradius
    lradius lwrist
    lwrist lhand lthumb
    lhand lfingers
    rclavicle rhumerus
    rhumerus rradius
    rradius rwrist
    rwrist rhand rthumb
    rhand rfingers
  end

#!OML:ASF F:\VICON\USERDATA\INSTALL\rory3\rory3.ASF
:FULLY-SPECIFIED
:DEGREES
50
root 13.1816 17.8366 -9.46022 5.05009 -54.1774 -2.69899
lowerback 10.3218 3.4471 1.78173
upperback 0.960718 4.74914 -0.209019
thorax -4.60816 2.30007 -1.87902
lowerneck -20.7235 -3.91423 -10.5366
upperneck 27.5662 -4.42689 7.46192
head 13.1152 -2.12259 3.92901
rclavicle -1.75769e-014 1.93815e-015
rhumerus -34.5479 -13.6411 -80.8441
rradius 29.1948
rwrist 11.5971
rhand -11.9309 9.97066
rfingers 7.12502
rthumb 14.1236 -19.5293
lclavicle -1.75769e-014 1.93815e-015
lhumerus -41.6048 14.9154 76.4001
lradius 27.9428
lwrist -11.8208
lhand -15.8626 25.9501
lfingers 7.12502
lthumb 10.3327 55.6763
rfemur 10.3353 0.83444 27.5112
rtibia 14.23
rfoot -17.4657 0.0982374
rtoes 9.1013
lfemur -23.9865 -4.32168 -16.7755
ltibia 11.8782
lfoot -9.856 0.025637
ltoes -8.2225
51
root 13.1096 17.8504 -9.37861 5.14698 -54.2462 -2.5732
lowerback 10.0838 3.4557 1.82837
upperback 0.941424 4.75743 -0.321129
thorax -4.48203 2.3054 -2.00598
lowerneck -20.7549 -3.91799 -10.4107
upperneck 27.459 -4.44136 7.38563
head 13.0735 -2.12257 3.87092
rclavicle -5.92099e-014 1.57288e-014
rhumerus -34.5176 -13.8348 -80.9174
rradius 29.2357
rwrist 11.854
rhand -11.8358 9.98353
rfingers 7.12502
rthumb 14.2152 -19.51
lclavicle -5.92099e-014 1.57288e-014
lhumerus -41.6279 15.0371 76.1866
lradius 27.9046
lwrist -12.1001
lhand -18.5493 24.3218
lfingers 7.12502
lthumb 7.74017 54.1601
rfemur 10.5803 0.858235 27.3057
rtibia 14.021
rfoot -17.0901 0.223127
rtoes 7.94655
lfemur -23.9228 -4.40695 -16.9573
ltibia 12.0337
lfoot -8.92216 0.106378
ltoes -7.74795
52
root 13.0357 17.8701 -9.29403 5.19762 -54.2727 -2.41236
lowerback 9.87615 3.46567 1.84276
upperback 0.90293 4.76668 -0.397391
thorax -4.39851 2.3112 -2.08094
lowerneck -20.7085 -3.9302 -10.4036
upperneck 27.3495 -4.44471 7.34102
head 13.0181 -2.1278 3.848
rclavicle -5.2796e-014 1.01629e-014
rhumerus -34.5541 -14.0477 -80.8838
rradius 29.3081
rwrist 12.0128
rhand -11.6804 9.86815
rfingers 7.12502
rthumb 14.365 -19.6148
lclavicle -5.2796e-014 1.01629e-014
lhumerus -41.6358 15.2187 76.0395
lradius 27.8262
lwrist -12.1366
lhand -19.2652 24.2422
lfingers 7.12502
lthumb 7.04915 54.1048
rfemur 10.889 0.982485 27.0903
rtibia 13.7668
rfoot -16.5927 0.364109
rtoes 7.12691
lfemur -23.8776 -4.26873 -17.2457
ltibia 12.1707
lfoot -7.68896 -0.209855
ltoes -6.53789
53
root 12.9613 17.8851 -9.21313 5.06594 -54.2544 -2.14762
lowerback 9.77368 3.49379 1.74442
upperback 0.913843 4.78957 -0.442527
thorax -4.33317 2.32547 -2.06811
lowerneck -20.7235 -4.02271 -10.5242
upperneck 27.2457 -4.51566 7.31022
head 12.9901 -2.1729 3.84067
rclavicle 8.83349e-015 -2.42269e-015
rhumerus -34.5316 -14.2773 -80.7818
rradius 29.348
rwrist 12.0706
rhand -11.7755 9.86378
rfingers 7.12502
rthumb 14.2733 -19.6257
lclavicle 8.83349e-015 -2.42269e-015
lhumerus -41.5894 15.3004 76.052
lradius 27.7589
lwrist -11.9044
lhand -19.1994 24.3926
lfingers 7.12502
lthumb 7.11266 54.2531
rfemur 11.3038 1.23502 26.8837
rtibia 13.4683
rfoot -16.0758 0.31341
rtoes 6.39705
lfemur -23.8004 -4.09592 -17.5949
ltibia 12.3444
lfoot -6.22319 -0.541165
ltoes -4.69198
54
root 12.8858 17.8987 -9.13454 5.0215 -54.1799 -1.93738
lowerback 9.78669 3.45651 1.50098
upperback 0.782269 4.71956 -0.389039
thorax -4.50522 2.29249 -1.87582
lowerneck -20.6592 -4.01228 -10.6478
upperneck 27.264 -4.44644 7.2506
head 12.9789 -2.16526 3.85083
rclavicle 2.11515e-014 1.88785e-014
rhumerus -34.6858 -14.0393 -80.7399
rradius 29.441
rwrist 11.8315
rhand -11.882 9.91477
rfingers 7.12502
rthumb 14.1707 -19.5819
lclavicle 2.11515e-014 1.88785e-014
lhumerus -41.8747 15.5059 75.9949
lradius 27.7969
lwrist -11.9245
lhand -19.2863 24.0951
lfingers 7.12502
lthumb 7.02878 53.9584
rfemur 11.5811 1.44012 26.7192
rtibia 13.3069
rfoot -15.5933 0.295971
rtoes 6.72092
lfemur -23.7654 -3.8919 -17.9134
ltibia 12.4499
lfoot -4.74237 -0.896114
ltoes -3.9776
